# xmcd CD database file
#
# Track frame offsets:
#	150
#	22761
#	44746
#
# Disc length: 895 seconds
#
# Revision: 1
# Processed by: cddbd v1.5.1PL2 Copyright (c) Steve Scherf et al.
# Submitted via: CDex 1.60beta1-cs1
#
DISCID=1c037d03
DTITLE=AAA - ハリケーン・リリ、ボストン・マリ
DYEAR=2006
DGENRE=avex
TTITLE0=ハリケーン・リリ、ボストン・マリ
TTITLE1=BLOOD on FIRE (Live Version) -1st ATTACK ROUND 2- at SHIBUYA-AX on 24th of March 2006
TTITLE2=ハリケーン・リリ、ボストン・マリ (Instrumental)
EXTD=YEAR: 2006
EXTT0=
EXTT1=
EXTT2=
PLAYORDER=
